<svg xmlns="http://www.w3.org/2000/svg" width="28" height="24" viewBox="0 0 28 24">
  <metadata><?xpacket begin="﻿" id="W5M0MpCehiHzreSzNTczkc9d"?>
<x:xmpmeta xmlns:x="adobe:ns:meta/" x:xmptk="Adobe XMP Core 5.6-c140 79.160451, 2017/05/06-01:08:21        ">
   <rdf:RDF xmlns:rdf="http://www.w3.org/1999/02/22-rdf-syntax-ns#">
      <rdf:Description rdf:about=""/>
   </rdf:RDF>
</x:xmpmeta>
                                                                                                    
                                                                                                    
                                                                                                    
                                                                                                    
                                                                                                    
                                                                                                    
                                                                                                    
                                                                                                    
                                                                                                    
                                                                                                    
                                                                                                    
                                                                                                    
                                                                                                    
                                                                                                    
                                                                                                    
                                                                                                    
                                                                                                    
                                                                                                    
                                                                                                    
                                                                                                    
                           
<?xpacket end="w"?></metadata>
<defs>
    <style>
      .cls-1 {
        fill: #ef3b4d;
        fill-rule: evenodd;
      }
    </style>
  </defs>
  <path id="Forma_1" data-name="Forma 1" class="cls-1" d="M2.549,6.094c2.72-2.433,4.868-4.357,10.7-.926a13.842,13.842,0,0,0,6.939,2.269c3.292,0,5.425-1.908,7.27-3.56a1.729,1.729,0,0,0,.189-2.333,1.492,1.492,0,0,0-2.193-.2c-2.72,2.434-4.867,4.357-10.7.926C7.051-2.263,3.443.965,0.545,3.559A1.731,1.731,0,0,0,.356,5.893,1.494,1.494,0,0,0,2.549,6.094Zm22.9,3.531c-2.72,2.433-4.867,4.357-10.7.926C7.051,6.018,3.443,9.246.545,11.84a1.729,1.729,0,0,0-.189,2.333,1.493,1.493,0,0,0,2.193.2c2.72-2.433,4.868-4.357,10.7-.926a13.852,13.852,0,0,0,6.939,2.271c3.292,0,5.425-1.908,7.27-3.56a1.73,1.73,0,0,0,.189-2.333A1.492,1.492,0,0,0,25.451,9.625Zm0,8.28c-2.72,2.434-4.867,4.357-10.7.926C7.051,14.3,3.443,17.526.545,20.12a1.731,1.731,0,0,0-.189,2.334,1.494,1.494,0,0,0,2.193.2c2.72-2.434,4.868-4.357,10.7-.926A13.843,13.843,0,0,0,20.185,24c3.292,0,5.425-1.908,7.27-3.56a1.73,1.73,0,0,0,.189-2.334A1.493,1.493,0,0,0,25.451,17.905Z"/>
</svg>
