<svg xmlns="http://www.w3.org/2000/svg" width="19" height="15" viewBox="0 0 19 15">
  <defs>
    <style>
      .cls-1 {
        fill: #d31023;
        fill-rule: evenodd;
      }
    </style>
  </defs>
  <path id="Forma_1" data-name="Forma 1" class="cls-1" d="M377.7,627H359.3a0.3,0.3,0,0,0-.3.3v14.4a0.3,0.3,0,0,0,.3.3h18.4a0.3,0.3,0,0,0,.3-0.3V627.3A0.3,0.3,0,0,0,377.7,627Zm-1.5,12.6-4.14-4.292a0.124,0.124,0,0,0-.17-0.007l-2.872,2.53-3.67-4.523a0.123,0.123,0,0,0-.1-0.046,0.125,0.125,0,0,0-.1.05l-4.341,5.83V628.808h15.388V639.6h0Zm-4.547-6.438a1.479,1.479,0,1,0-1.477-1.478A1.478,1.478,0,0,0,371.647,633.16Z" transform="translate(-359 -627)"/>
</svg>
