<svg xmlns="http://www.w3.org/2000/svg" width="16" height="17" viewBox="0 0 16 17">
  <metadata><?xpacket begin="﻿" id="W5M0MpCehiHzreSzNTczkc9d"?>
<x:xmpmeta xmlns:x="adobe:ns:meta/" x:xmptk="Adobe XMP Core 5.6-c140 79.160451, 2017/05/06-01:08:21        ">
   <rdf:RDF xmlns:rdf="http://www.w3.org/1999/02/22-rdf-syntax-ns#">
      <rdf:Description rdf:about=""/>
   </rdf:RDF>
</x:xmpmeta>
                                                                                                    
                                                                                                    
                                                                                                    
                                                                                                    
                                                                                                    
                                                                                                    
                                                                                                    
                                                                                                    
                                                                                                    
                                                                                                    
                                                                                                    
                                                                                                    
                                                                                                    
                                                                                                    
                                                                                                    
                                                                                                    
                                                                                                    
                                                                                                    
                                                                                                    
                                                                                                    
                           
<?xpacket end="w"?></metadata>
<defs>
    <style>
      .cls-1 {
        fill: #d31023;
        fill-rule: evenodd;
      }
    </style>
  </defs>
  <path id="Forma_1" data-name="Forma 1" class="cls-1" d="M373.809,671.056H372.5v-0.882A1.182,1.182,0,0,0,371.31,669h-0.048a1.182,1.182,0,0,0-1.191,1.174v0.882h-6.142v-0.882A1.183,1.183,0,0,0,362.738,669H362.69a1.182,1.182,0,0,0-1.19,1.174v0.882h-1.31a1.183,1.183,0,0,0-1.19,1.175v12.6A1.182,1.182,0,0,0,360.19,686h13.619A1.183,1.183,0,0,0,375,684.826v-12.6A1.183,1.183,0,0,0,373.809,671.056ZM373,683.988H361v-8.977h12v8.977Zm-9.835-5.007h1.668a0.153,0.153,0,0,0,.156-0.149V677.15a0.153,0.153,0,0,0-.156-0.149h-1.668a0.153,0.153,0,0,0-.156.149v1.682A0.153,0.153,0,0,0,363.165,678.981Zm2.99,0.034h1.693a0.157,0.157,0,0,0,.158-0.156v-1.7a0.157,0.157,0,0,0-.158-0.157h-1.693a0.158,0.158,0,0,0-.159.157v1.7A0.158,0.158,0,0,0,366.155,679.015Zm3.034-.026h1.626a0.157,0.157,0,0,0,.15-0.162v-1.663a0.156,0.156,0,0,0-.15-0.161h-1.626a0.156,0.156,0,0,0-.15.161v1.663A0.157,0.157,0,0,0,369.189,678.989Zm-6.068,3h1.688a0.152,0.152,0,0,0,.149-0.155v-1.677a0.152,0.152,0,0,0-.149-0.154h-1.688a0.152,0.152,0,0,0-.15.154v1.677A0.152,0.152,0,0,0,363.121,681.994Zm3.042-.015h1.674a0.153,0.153,0,0,0,.154-0.152v-1.652a0.153,0.153,0,0,0-.154-0.152h-1.674a0.153,0.153,0,0,0-.154.152v1.652A0.153,0.153,0,0,0,366.163,681.979Zm3-.046h1.681a0.151,0.151,0,0,0,.151-0.15v-1.627a0.151,0.151,0,0,0-.151-0.15h-1.681a0.151,0.151,0,0,0-.151.15v1.627A0.151,0.151,0,0,0,369.162,681.933Z" transform="translate(-359 -669)"/>
</svg>
