<svg xmlns="http://www.w3.org/2000/svg" width="16" height="16" viewBox="0 0 16 16">
  <metadata><?xpacket begin="﻿" id="W5M0MpCehiHzreSzNTczkc9d"?>
<x:xmpmeta xmlns:x="adobe:ns:meta/" x:xmptk="Adobe XMP Core 5.6-c140 79.160451, 2017/05/06-01:08:21        ">
   <rdf:RDF xmlns:rdf="http://www.w3.org/1999/02/22-rdf-syntax-ns#">
      <rdf:Description rdf:about=""/>
   </rdf:RDF>
</x:xmpmeta>
                                                                                                    
                                                                                                    
                                                                                                    
                                                                                                    
                                                                                                    
                                                                                                    
                                                                                                    
                                                                                                    
                                                                                                    
                                                                                                    
                                                                                                    
                                                                                                    
                                                                                                    
                                                                                                    
                                                                                                    
                                                                                                    
                                                                                                    
                                                                                                    
                                                                                                    
                                                                                                    
                           
<?xpacket end="w"?></metadata>
<defs>
    <style>
      .cls-1 {
        fill: #d31023;
        fill-rule: evenodd;
      }
    </style>
  </defs>
  <path id="Forma_1" data-name="Forma 1" class="cls-1" d="M373.928,704.984a7.958,7.958,0,0,0-2.912-2.912,8.052,8.052,0,0,0-8.032,0,7.958,7.958,0,0,0-2.912,2.912,8.052,8.052,0,0,0,0,8.032,7.966,7.966,0,0,0,2.912,2.912,8.052,8.052,0,0,0,8.032,0,7.958,7.958,0,0,0,2.912-2.912A8.052,8.052,0,0,0,373.928,704.984Zm-2.021,6.86a5.653,5.653,0,0,1-2.063,2.063,5.7,5.7,0,0,1-5.688,0,5.653,5.653,0,0,1-2.063-2.063,5.7,5.7,0,0,1,0-5.688,5.653,5.653,0,0,1,2.063-2.063,5.7,5.7,0,0,1,5.688,0,5.653,5.653,0,0,1,2.063,2.063A5.7,5.7,0,0,1,371.907,711.844ZM368,705h-0.667a0.322,0.322,0,0,0-.333.334V709h-2.334a0.322,0.322,0,0,0-.333.333v1.2a0.322,0.322,0,0,0,.333.334h3.991a0.322,0.322,0,0,0,.333-0.334v-5.2a0.329,0.329,0,0,0-.094-0.24A4.152,4.152,0,0,0,368,705Z" transform="translate(-359 -701)"/>
</svg>
