<svg xmlns="http://www.w3.org/2000/svg" width="12" height="13" viewBox="0 0 12 13">
  <metadata><?xpacket begin="﻿" id="W5M0MpCehiHzreSzNTczkc9d"?>
<x:xmpmeta xmlns:x="adobe:ns:meta/" x:xmptk="Adobe XMP Core 5.6-c140 79.160451, 2017/05/06-01:08:21        ">
   <rdf:RDF xmlns:rdf="http://www.w3.org/1999/02/22-rdf-syntax-ns#">
      <rdf:Description rdf:about=""/>
   </rdf:RDF>
</x:xmpmeta>
                                                                                                    
                                                                                                    
                                                                                                    
                                                                                                    
                                                                                                    
                                                                                                    
                                                                                                    
                                                                                                    
                                                                                                    
                                                                                                    
                                                                                                    
                                                                                                    
                                                                                                    
                                                                                                    
                                                                                                    
                                                                                                    
                                                                                                    
                                                                                                    
                                                                                                    
                                                                                                    
                           
<?xpacket end="w"?></metadata>
<defs>
    <style>
      .cls-1 {
        fill: #d31023;
        fill-rule: evenodd;
      }
    </style>
  </defs>
  <path id="Forma_1" data-name="Forma 1" class="cls-1" d="M538.3,674.932h2.1v1.773a0.286,0.286,0,0,0,.084.212,0.3,0.3,0,0,0,.216.083h1.566a0.3,0.3,0,0,0,.211-0.083,0.279,0.279,0,0,0,.089-0.212v-1.773H547.3a0.3,0.3,0,0,0,.216-0.083,0.289,0.289,0,0,0,.084-0.213v-1.182a0.286,0.286,0,0,0-.084-0.212,0.3,0.3,0,0,0-.216-0.083h-4.734v-1.09h3.187a4.263,4.263,0,0,0,3.061-1.126,4.159,4.159,0,0,0,0-5.817A4.268,4.268,0,0,0,545.753,664H540.7a0.3,0.3,0,0,0-.216.083,0.286,0.286,0,0,0-.084.212V670.1h-2.1a0.294,0.294,0,0,0-.3.3v1.376a0.285,0.285,0,0,0,.084.212,0.293,0.293,0,0,0,.216.083h2.1v1.09h-2.1a0.3,0.3,0,0,0-.216.083,0.285,0.285,0,0,0-.084.212v1.182a0.289,0.289,0,0,0,.084.213A0.3,0.3,0,0,0,538.3,674.932Zm4.266-8.965h3a2.247,2.247,0,0,1,1.6.572,2.142,2.142,0,0,1,0,2.992,2.251,2.251,0,0,1-1.6.572h-3v-4.136Z" transform="translate(-538 -664)"/>
</svg>
