<svg xmlns="http://www.w3.org/2000/svg" width="23" height="26" viewBox="0 0 23 26">
  <metadata><?xpacket begin="﻿" id="W5M0MpCehiHzreSzNTczkc9d"?>
<x:xmpmeta xmlns:x="adobe:ns:meta/" x:xmptk="Adobe XMP Core 5.6-c140 79.160451, 2017/05/06-01:08:21        ">
   <rdf:RDF xmlns:rdf="http://www.w3.org/1999/02/22-rdf-syntax-ns#">
      <rdf:Description rdf:about=""/>
   </rdf:RDF>
</x:xmpmeta>
                                                                                                    
                                                                                                    
                                                                                                    
                                                                                                    
                                                                                                    
                                                                                                    
                                                                                                    
                                                                                                    
                                                                                                    
                                                                                                    
                                                                                                    
                                                                                                    
                                                                                                    
                                                                                                    
                                                                                                    
                                                                                                    
                                                                                                    
                                                                                                    
                                                                                                    
                                                                                                    
                           
<?xpacket end="w"?></metadata>
<defs>
    <style>
      .cls-1 {
        fill: #e1a338;
        fill-rule: evenodd;
      }
    </style>
  </defs>
  <path id="Forma_1" data-name="Forma 1" class="cls-1" d="M390.547,980.3h-0.624v-3.012a0.368,0.368,0,0,0-.006-0.057,0.5,0.5,0,0,0-.121-0.33l-5.008-5.727,0,0a0.512,0.512,0,0,0-.1-0.086l-0.034-.019a0.5,0.5,0,0,0-.1-0.043c-0.01,0-.018-0.006-0.028-0.009a0.5,0.5,0,0,0-.116-0.014H372.1a1.02,1.02,0,0,0-1.019,1.02v8.28h-0.624A1.456,1.456,0,0,0,369,981.757v7.578a1.456,1.456,0,0,0,1.456,1.457h0.624v5.188A1.02,1.02,0,0,0,372.1,997H388.9a1.02,1.02,0,0,0,1.019-1.02v-5.187h0.624A1.457,1.457,0,0,0,392,989.336v-7.579A1.456,1.456,0,0,0,390.547,980.3ZM372.1,972.02h11.8v5.216a0.51,0.51,0,0,0,.51.51h4.5V980.3H372.1v-8.28Zm10.733,9.585v7.613H381.1v-7.613h1.726Zm-8.386,1.423v-1.423h5.519V982.6l-3.544,5.151v0.044h3.6v1.424h-5.913v-0.927l3.623-5.218v-0.045h-3.285ZM388.9,995.7H372.1v-4.911H388.9V995.7Zm0.177-9.976a3.524,3.524,0,0,1-2.471.8,4.259,4.259,0,0,1-.587-0.034v2.722h-1.7v-7.512a14.106,14.106,0,0,1,2.325-.158,3.647,3.647,0,0,1,2.325.61,2.227,2.227,0,0,1,.812,1.762A2.434,2.434,0,0,1,389.081,985.728Zm-2.347-2.881a2.917,2.917,0,0,0-.711.068v2.248a2.618,2.618,0,0,0,.576.045,1.267,1.267,0,0,0,1.478-1.242A1.135,1.135,0,0,0,386.734,982.847Z" transform="translate(-369 -971)"/>
</svg>
