<svg xmlns="http://www.w3.org/2000/svg" width="24" height="26" viewBox="0 0 24 26">
  <metadata><?xpacket begin="﻿" id="W5M0MpCehiHzreSzNTczkc9d"?>
<x:xmpmeta xmlns:x="adobe:ns:meta/" x:xmptk="Adobe XMP Core 5.6-c140 79.160451, 2017/05/06-01:08:21        ">
   <rdf:RDF xmlns:rdf="http://www.w3.org/1999/02/22-rdf-syntax-ns#">
      <rdf:Description rdf:about=""/>
   </rdf:RDF>
</x:xmpmeta>
                                                                                                    
                                                                                                    
                                                                                                    
                                                                                                    
                                                                                                    
                                                                                                    
                                                                                                    
                                                                                                    
                                                                                                    
                                                                                                    
                                                                                                    
                                                                                                    
                                                                                                    
                                                                                                    
                                                                                                    
                                                                                                    
                                                                                                    
                                                                                                    
                                                                                                    
                                                                                                    
                           
<?xpacket end="w"?></metadata>
<defs>
    <style>
      .cls-1 {
        fill: #9f38e1;
        fill-rule: evenodd;
      }
    </style>
  </defs>
  <path id="Forma_1" data-name="Forma 1" class="cls-1" d="M380.8,1092.33c-0.142-.45-0.283-1.02-0.4-1.47h-0.023c-0.118.45-.235,1.03-0.365,1.47l-0.471,1.61h1.755Zm10.684-4.03h-0.651v-3.01c0-.02,0-0.04,0-0.06a0.483,0.483,0,0,0-.126-0.33l-5.226-5.73h0a0.462,0.462,0,0,0-.106-0.08,0.058,0.058,0,0,0-.034-0.02,0.458,0.458,0,0,0-.1-0.05,0.035,0.035,0,0,1-.029-0.01c-0.039,0-.08-0.01-0.122-0.01H372.23a1.045,1.045,0,0,0-1.063,1.02v8.28h-0.65a1.489,1.489,0,0,0-1.52,1.46v7.58a1.487,1.487,0,0,0,1.52,1.45h0.65v5.19a1.045,1.045,0,0,0,1.063,1.02h17.54a1.045,1.045,0,0,0,1.062-1.02v-5.19h0.651a1.487,1.487,0,0,0,1.52-1.45v-7.58A1.489,1.489,0,0,0,391.483,1088.3Zm-19.253-8.28h12.313v5.22a0.522,0.522,0,0,0,.531.51h4.7v2.55H372.23v-8.28Zm11.866,17.16h-1.932l-0.612-1.95h-2.273l-0.565,1.95h-1.86l2.425-7.61h2.355Zm-11.977-2.99v2.99h-1.778v-7.51a16.448,16.448,0,0,1,2.391-.16,4.177,4.177,0,0,1,2.567.6,1.913,1.913,0,0,1,.73,1.6,2.029,2.029,0,0,1-1.4,1.87v0.04a1.916,1.916,0,0,1,1.06,1.42,21.415,21.415,0,0,0,.647,2.14H374.5a8.912,8.912,0,0,1-.554-1.77,1.192,1.192,0,0,0-1.284-1.22h-0.542Zm17.651,9.51H372.23v-4.91h17.54v4.91Zm-0.456-6.52a8.984,8.984,0,0,1-.554-1.77,1.193,1.193,0,0,0-1.283-1.22h-0.542v2.99h-1.778v-7.51a16.432,16.432,0,0,1,2.39-.16,4.175,4.175,0,0,1,2.567.6,1.914,1.914,0,0,1,.731,1.6,2.03,2.03,0,0,1-1.4,1.87v0.04a1.913,1.913,0,0,1,1.06,1.42,21.351,21.351,0,0,0,.648,2.14h-1.837Zm-15.063-5.33a1.1,1.1,0,0,0-1.319-1.06,3.908,3.908,0,0,0-.813.06v2.1h0.707A1.194,1.194,0,0,0,374.251,1091.85Zm13.5-1.06a3.908,3.908,0,0,0-.813.06v2.1h0.706a1.194,1.194,0,0,0,1.425-1.1A1.1,1.1,0,0,0,387.748,1090.79Z" transform="translate(-369 -1079)"/>
</svg>
