<svg xmlns="http://www.w3.org/2000/svg" width="22" height="26" viewBox="0 0 22 26">
  <metadata><?xpacket begin="﻿" id="W5M0MpCehiHzreSzNTczkc9d"?>
<x:xmpmeta xmlns:x="adobe:ns:meta/" x:xmptk="Adobe XMP Core 5.6-c140 79.160451, 2017/05/06-01:08:21        ">
   <rdf:RDF xmlns:rdf="http://www.w3.org/1999/02/22-rdf-syntax-ns#">
      <rdf:Description rdf:about=""/>
   </rdf:RDF>
</x:xmpmeta>


<?xpacket end="w"?></metadata>

  <path fill="3c8ecf" id="Forma_1" data-name="Forma 1" class="cls-1" d="M390.61,382.3h-0.6v-3.013a0.554,0.554,0,0,0,0-.056,0.518,0.518,0,0,0-.116-0.331l-4.79-5.726,0,0a0.485,0.485,0,0,0-.1-0.085,0.28,0.28,0,0,0-.032-0.02,0.513,0.513,0,0,0-.1-0.043,0.267,0.267,0,0,1-.026-0.009,0.528,0.528,0,0,0-.112-0.014H372.961a1,1,0,0,0-.974,1.02v8.28h-0.6A1.425,1.425,0,0,0,370,383.757v7.579a1.426,1.426,0,0,0,1.392,1.457h0.6v5.187a1,1,0,0,0,.974,1.02h16.078a1,1,0,0,0,.974-1.02v-5.187h0.6A1.426,1.426,0,0,0,392,391.336v-7.579A1.425,1.425,0,0,0,390.61,382.3Zm-17.649-8.28h11.287v5.216a0.5,0.5,0,0,0,.487.51h4.3V382.3H372.961v-8.28Zm11.691,13.112c0,2.318-1.343,3.723-3.317,3.723-2,0-3.177-1.584-3.177-3.6,0-2.119,1.292-3.7,3.287-3.7C383.519,383.556,384.652,385.181,384.652,387.132Zm-13.16,3.576v-6.942a13.086,13.086,0,0,1,2.065-.147,4.2,4.2,0,0,1,2.766.755,3.188,3.188,0,0,1,1.143,2.664,3.663,3.663,0,0,1-1.123,2.863,4.7,4.7,0,0,1-3.117.912A12.717,12.717,0,0,1,371.492,390.708Zm17.547,7H372.961v-4.911h16.078V397.7Zm0.073-8.181a3.66,3.66,0,0,0,1.273-.231l0.231,1.248a4.166,4.166,0,0,1-1.734.3,3.285,3.285,0,0,1-3.538-3.534,3.52,3.52,0,0,1,3.688-3.754,3.825,3.825,0,0,1,1.664.315l-0.311,1.268a3.174,3.174,0,0,0-1.283-.262A2.329,2.329,0,0,0,389.112,389.523Zm-13.27-2.433a1.984,1.984,0,0,0-2.125-2.244,3,3,0,0,0-.691.063v4.625a2.721,2.721,0,0,0,.531.031C374.94,389.576,375.842,388.778,375.842,387.09Zm3.929,0.136c0,1.385.622,2.36,1.644,2.36s1.623-1.028,1.623-2.4c0-1.269-.581-2.359-1.633-2.359C380.373,384.825,379.771,385.853,379.771,387.226Z" transform="translate(-370 -373)"/>
</svg>
