<svg xmlns="http://www.w3.org/2000/svg" width="23" height="26" viewBox="0 0 23 26">
  <metadata><?xpacket begin="﻿" id="W5M0MpCehiHzreSzNTczkc9d"?>
<x:xmpmeta xmlns:x="adobe:ns:meta/" x:xmptk="Adobe XMP Core 5.6-c140 79.160451, 2017/05/06-01:08:21        ">
   <rdf:RDF xmlns:rdf="http://www.w3.org/1999/02/22-rdf-syntax-ns#">
      <rdf:Description rdf:about=""/>
   </rdf:RDF>
</x:xmpmeta>
                                                                                                    
                                                                                                    
                                                                                                    
                                                                                                    
                                                                                                    
                                                                                                    
                                                                                                    
                                                                                                    
                                                                                                    
                                                                                                    
                                                                                                    
                                                                                                    
                                                                                                    
                                                                                                    
                                                                                                    
                                                                                                    
                                                                                                    
                                                                                                    
                                                                                                    
                                                                                                    
                           
<?xpacket end="w"?></metadata>
<defs>
    <style>
      .cls-1 {
        fill: #e13838;
        fill-rule: evenodd;
      }
    </style>
  </defs>
  <path id="Forma_1" data-name="Forma 1" class="cls-1" d="M375.076,684.322a1.136,1.136,0,0,0-1.343-1.118,2.917,2.917,0,0,0-.711.068v2.248a2.683,2.683,0,0,0,.575.045A1.268,1.268,0,0,0,375.076,684.322Zm5.3-1.1a3.584,3.584,0,0,0-.779.067v4.982a3.154,3.154,0,0,0,.6.034,2.359,2.359,0,0,0,2.573-2.666A2.182,2.182,0,0,0,380.381,683.227Zm10.166-2.927h-0.624v-3.012a0.368,0.368,0,0,0-.006-0.057,0.5,0.5,0,0,0-.121-0.33l-5.008-5.727,0,0a0.507,0.507,0,0,0-.1-0.085,0.233,0.233,0,0,0-.034-0.02,0.5,0.5,0,0,0-.1-0.043c-0.01,0-.018-0.006-0.028-0.009a0.5,0.5,0,0,0-.116-0.014H372.1a1.02,1.02,0,0,0-1.019,1.019V680.3h-0.624A1.456,1.456,0,0,0,369,681.757v7.578a1.456,1.456,0,0,0,1.456,1.457h0.624v5.188A1.021,1.021,0,0,0,372.1,697H388.9a1.021,1.021,0,0,0,1.019-1.02v-5.187h0.624A1.457,1.457,0,0,0,392,689.335v-7.578A1.456,1.456,0,0,0,390.547,680.3ZM372.1,672.02h11.8v5.216a0.51,0.51,0,0,0,.51.51h4.5V680.3H372.1v-8.28Zm12.5,13.567a3.859,3.859,0,0,1-1.265,3.084,5.453,5.453,0,0,1-3.508.982,15.014,15.014,0,0,1-1.953-.112v-7.478a15.3,15.3,0,0,1,2.325-.158,4.9,4.9,0,0,1,3.115.813A3.371,3.371,0,0,1,384.6,685.587Zm-13.283,3.987v-7.511a14.106,14.106,0,0,1,2.325-.158,3.644,3.644,0,0,1,2.324.61,2.227,2.227,0,0,1,.812,1.762,2.437,2.437,0,0,1-.7,1.808,3.528,3.528,0,0,1-2.472.8,4.407,4.407,0,0,1-.586-0.034v2.722h-1.7ZM388.9,695.7H372.1v-4.911H388.9V695.7Zm1.476-12.331h-2.923v1.74h2.731v1.4h-2.731v3.06h-1.726v-7.613h4.649v1.412Z" transform="translate(-369 -671)"/>
</svg>
