<svg xmlns="http://www.w3.org/2000/svg" width="18" height="18" viewBox="0 0 18 18">
  <metadata><?xpacket begin="﻿" id="W5M0MpCehiHzreSzNTczkc9d"?>
<x:xmpmeta xmlns:x="adobe:ns:meta/" x:xmptk="Adobe XMP Core 5.6-c140 79.160451, 2017/05/06-01:08:21        ">
   <rdf:RDF xmlns:rdf="http://www.w3.org/1999/02/22-rdf-syntax-ns#">
      <rdf:Description rdf:about=""/>
   </rdf:RDF>
</x:xmpmeta>
                                                                                                    
                                                                                                    
                                                                                                    
                                                                                                    
                                                                                                    
                                                                                                    
                                                                                                    
                                                                                                    
                                                                                                    
                                                                                                    
                                                                                                    
                                                                                                    
                                                                                                    
                                                                                                    
                                                                                                    
                                                                                                    
                                                                                                    
                                                                                                    
                                                                                                    
                                                                                                    
                           
<?xpacket end="w"?></metadata>
<defs>
    <style>
      .cls-1 {
        fill: #fff;
        fill-rule: evenodd;
      }
    </style>
  </defs>
  <path id="Forma_1" data-name="Forma 1" class="cls-1" d="M137.594,939.243l-2.779-2.788a1.446,1.446,0,0,0-2.043.039l-1.4,1.4-0.277-.154a13.152,13.152,0,0,1-5.808-5.826c-0.052-.094-0.1-0.184-0.15-0.271l0.939-.941,0.462-.463a1.454,1.454,0,0,0,.037-2.049l-2.779-2.787a1.443,1.443,0,0,0-2.042.039l-0.784.789,0.022,0.022a4.518,4.518,0,0,0-.645,1.141,4.729,4.729,0,0,0-.288,1.158c-0.367,3.05,1.023,5.839,4.8,9.622,5.215,5.229,9.418,4.833,9.6,4.814a4.663,4.663,0,0,0,1.158-.291,4.513,4.513,0,0,0,1.134-.645l0.017,0.016,0.794-.779A1.458,1.458,0,0,0,137.594,939.243Z" transform="translate(-120 -925)"/>
</svg>
