<svg xmlns="http://www.w3.org/2000/svg" width="21" height="21" viewBox="0 0 21 21">
  <metadata><?xpacket begin="﻿" id="W5M0MpCehiHzreSzNTczkc9d"?>
<x:xmpmeta xmlns:x="adobe:ns:meta/" x:xmptk="Adobe XMP Core 5.6-c140 79.160451, 2017/05/06-01:08:21        ">
   <rdf:RDF xmlns:rdf="http://www.w3.org/1999/02/22-rdf-syntax-ns#">
      <rdf:Description rdf:about=""/>
   </rdf:RDF>
</x:xmpmeta>
                                                                                                    
                                                                                                    
                                                                                                    
                                                                                                    
                                                                                                    
                                                                                                    
                                                                                                    
                                                                                                    
                                                                                                    
                                                                                                    
                                                                                                    
                                                                                                    
                                                                                                    
                                                                                                    
                                                                                                    
                                                                                                    
                                                                                                    
                                                                                                    
                                                                                                    
                                                                                                    
                           
<?xpacket end="w"?></metadata>
<defs>
    <style>
      .cls-1 {
        fill: #285ba6;
        fill-rule: evenodd;
      }
    </style>
  </defs>
  <path id="Forma_1" data-name="Forma 1" class="cls-1" d="M640.741,957.819h4.138v2.44a0.733,0.733,0,0,0,.741.741h9.759a0.733,0.733,0,0,0,.741-0.741v-2.44h4.139a0.733,0.733,0,0,0,.741-0.741V943.922a0.733,0.733,0,0,0-.741-0.741H656.12v-2.44a0.733,0.733,0,0,0-.741-0.741H645.62a0.733,0.733,0,0,0-.741.741v2.44h-4.138a0.733,0.733,0,0,0-.741.741v13.156A0.756,0.756,0,0,0,640.741,957.819Zm13.9,1.7h-8.278V953.41h8.277v6.108h0Zm-8.278-18.036h8.277v1.7h-8.277v-1.7Zm-4.879,3.181h18.036v11.674h-3.4V953.41h1.32a0.741,0.741,0,0,0,0-1.482H643.578a0.741,0.741,0,0,0,0,1.482h1.32v2.927h-3.416V944.663Zm12.94,3.813h1.915a0.741,0.741,0,0,0,0-1.482h-1.915A0.741,0.741,0,0,0,654.422,948.476Z" transform="translate(-640 -940)"/>
</svg>
