<svg xmlns="http://www.w3.org/2000/svg" style="display:none"><defs><style>.cls-1{fill:#d31023;fill-rule:evenodd}</style><style>.cls-1{fill:#d31023;fill-rule:evenodd}</style><style>.cls-1{fill:#d31023;fill-rule:evenodd}</style><style>.cls-1{fill:#d31023;fill-rule:evenodd}</style><style>.cls-1{fill:#d31023;fill-rule:evenodd}</style><style>.cls-1{fill:#fff;fill-rule:evenodd}</style><style>.cls-1{fill:#fff;fill-rule:evenodd}</style></defs><symbol id="card-icon-date" viewBox="0 0 16 17"><path id="Forma_1" data-name="Forma 1" class="cls-1" d="M373.809 671.056H372.5v-.882a1.182 1.182 0 0 0-1.19-1.174h-.048a1.182 1.182 0 0 0-1.191 1.174v.882h-6.142v-.882a1.183 1.183 0 0 0-1.191-1.174h-.048a1.182 1.182 0 0 0-1.19 1.174v.882h-1.31a1.183 1.183 0 0 0-1.19 1.175v12.6a1.182 1.182 0 0 0 1.19 1.169h13.619a1.183 1.183 0 0 0 1.191-1.174v-12.6a1.183 1.183 0 0 0-1.191-1.17zM373 683.988h-12v-8.977h12v8.977zm-9.835-5.007h1.668a.153.153 0 0 0 .156-.149v-1.682a.153.153 0 0 0-.156-.149h-1.668a.153.153 0 0 0-.156.149v1.682a.153.153 0 0 0 .156.149zm2.99.034h1.693a.157.157 0 0 0 .158-.156v-1.7a.157.157 0 0 0-.158-.157h-1.693a.158.158 0 0 0-.159.157v1.7a.158.158 0 0 0 .159.156zm3.034-.026h1.626a.157.157 0 0 0 .15-.162v-1.663a.156.156 0 0 0-.15-.161h-1.626a.156.156 0 0 0-.15.161v1.663a.157.157 0 0 0 .15.162zm-6.068 3h1.688a.152.152 0 0 0 .149-.155v-1.677a.152.152 0 0 0-.149-.154h-1.688a.152.152 0 0 0-.15.154v1.677a.152.152 0 0 0 .15.16zm3.042-.015h1.674a.153.153 0 0 0 .154-.152v-1.652a.153.153 0 0 0-.154-.152h-1.674a.153.153 0 0 0-.154.152v1.652a.153.153 0 0 0 .154.157zm3-.046h1.681a.151.151 0 0 0 .151-.15v-1.627a.151.151 0 0 0-.151-.15h-1.681a.151.151 0 0 0-.151.15v1.627a.151.151 0 0 0 .15.155z" transform="translate(-359 -669)"/></symbol><symbol id="card-icon-home" viewBox="0 0 15 14"><path id="Forma_1" data-name="Forma 1" class="cls-1" d="M374 671.3l-2.813-3.111v-4.667h-1.875v2.593L366.5 663l-7.5 8.3v.519h1.875V677h4.687v-3.111h1.875V677h4.688v-5.185H374v-.515z" transform="translate(-359 -663)"/></symbol><symbol id="card-icon-map" viewBox="0 0 11 15"><path class="cls-1" d="M5.5 0A5.466 5.466 0 0 0 0 5.42c0 3.709 4.922 9.154 5.132 9.384a.5.5 0 0 0 .736 0C6.078 14.574 11 9.129 11 5.42A5.466 5.466 0 0 0 5.5 0zm0 8.147A2.727 2.727 0 1 1 8.267 5.42 2.75 2.75 0 0 1 5.5 8.147z"/></symbol><symbol id="card-icon-rub" viewBox="0 0 12 13"><path id="Forma_1" data-name="Forma 1" class="cls-1" d="M538.3 674.932h2.1v1.773a.286.286 0 0 0 .084.212.3.3 0 0 0 .216.083h1.566a.3.3 0 0 0 .211-.083.279.279 0 0 0 .089-.212v-1.773h4.734a.3.3 0 0 0 .216-.083.289.289 0 0 0 .084-.213v-1.182a.286.286 0 0 0-.084-.212.3.3 0 0 0-.216-.083h-4.734v-1.09h3.187a4.263 4.263 0 0 0 3.061-1.126 4.159 4.159 0 0 0 0-5.817 4.268 4.268 0 0 0-3.061-1.126H540.7a.3.3 0 0 0-.216.083.286.286 0 0 0-.084.212v5.805h-2.1a.294.294 0 0 0-.3.3v1.376a.285.285 0 0 0 .084.212.293.293 0 0 0 .216.083h2.1v1.09h-2.1a.3.3 0 0 0-.216.083.285.285 0 0 0-.084.212v1.182a.289.289 0 0 0 .084.213.3.3 0 0 0 .216.081zm4.266-8.965h3a2.247 2.247 0 0 1 1.6.572 2.142 2.142 0 0 1 0 2.992 2.251 2.251 0 0 1-1.6.572h-3v-4.136z" transform="translate(-538 -664)"/></symbol><symbol id="card-icon-time" viewBox="0 0 16 16"><path id="Forma_1" data-name="Forma 1" class="cls-1" d="M373.928 704.984a7.958 7.958 0 0 0-2.912-2.912 8.052 8.052 0 0 0-8.032 0 7.958 7.958 0 0 0-2.912 2.912 8.052 8.052 0 0 0 0 8.032 7.966 7.966 0 0 0 2.912 2.912 8.052 8.052 0 0 0 8.032 0 7.958 7.958 0 0 0 2.912-2.912 8.052 8.052 0 0 0 0-8.032zm-2.021 6.86a5.653 5.653 0 0 1-2.063 2.063 5.7 5.7 0 0 1-5.688 0 5.653 5.653 0 0 1-2.063-2.063 5.7 5.7 0 0 1 0-5.688 5.653 5.653 0 0 1 2.063-2.063 5.7 5.7 0 0 1 5.688 0 5.653 5.653 0 0 1 2.063 2.063 5.7 5.7 0 0 1 0 5.688zM368 705h-.667a.322.322 0 0 0-.333.334V709h-2.334a.322.322 0 0 0-.333.333v1.2a.322.322 0 0 0 .333.334h3.991a.322.322 0 0 0 .333-.334v-5.2a.329.329 0 0 0-.094-.24A4.152 4.152 0 0 0 368 705z" transform="translate(-359 -701)"/></symbol><symbol id="icon-mail" viewBox="0 0 18 13"><path id="Forma_1" data-name="Forma 1" class="cls-1" d="M347.773 934.129l-6.367 5.518a1.3 1.3 0 0 0 .888.353h15.411a1.288 1.288 0 0 0 .885-.353l-6.363-5.518L350 936.1zm9.932-7.129h-15.411a1.284 1.284 0 0 0-.885.354L350 934.8l8.593-7.447a1.287 1.287 0 0 0-.888-.353zM341 938.94l6.214-5.338L341 928.14v10.8zm18 0v-10.8l-6.214 5.465z" transform="translate(-341 -927)"/></symbol><symbol id="icon-phone" viewBox="0 0 18 18"><path id="Forma_1" data-name="Forma 1" class="cls-1" d="M137.594 939.243l-2.779-2.788a1.446 1.446 0 0 0-2.043.039l-1.4 1.4-.277-.154a13.152 13.152 0 0 1-5.808-5.826c-.052-.094-.1-.184-.15-.271l.939-.941.462-.463a1.454 1.454 0 0 0 .037-2.049l-2.779-2.787a1.443 1.443 0 0 0-2.042.039l-.784.789.022.022a4.518 4.518 0 0 0-.645 1.141 4.729 4.729 0 0 0-.288 1.158c-.367 3.05 1.023 5.839 4.8 9.622 5.215 5.229 9.418 4.833 9.6 4.814a4.663 4.663 0 0 0 1.158-.291 4.513 4.513 0 0 0 1.134-.645l.017.016.794-.779a1.458 1.458 0 0 0 .032-2.046z" transform="translate(-120 -925)"/></symbol><symbol id="temp-icon-left-arrow" viewBox="0 0 31.494 31.494"><path d="M10.273 5.01a1.117 1.117 0 0 1 1.587 1.57l-8.047 8.047h26.554c.62 0 1.127.492 1.127 1.11 0 .62-.508 1.128-1.127 1.128H3.813l8.047 8.032c.43.444.43 1.16 0 1.587a1.112 1.112 0 0 1-1.587 0L.32 16.532a1.12 1.12 0 0 1 0-1.57l9.953-9.953z"/></symbol><symbol id="temp-icon-right-arrow" viewBox="0 0 31.49 31.49"><path d="M21.205 5.007a1.117 1.117 0 0 0-1.587 1.57l8.047 8.048H1.11c-.618 0-1.11.493-1.11 1.112 0 .62.492 1.127 1.11 1.127h26.555l-8.047 8.032c-.43.444-.43 1.16 0 1.587.444.444 1.16.444 1.587 0l9.952-9.952a1.092 1.092 0 0 0 0-1.57l-9.952-9.95z" fill="#1E201D"/></symbol></svg>