<svg xmlns="http://www.w3.org/2000/svg" style="display:none"><defs><style>.cls-1{fill:#d31023;fill-rule:evenodd}</style><style>.cls-1{fill:#d31023;fill-rule:evenodd}</style><style>.cls-1{fill:#d31023;fill-rule:evenodd}</style><style>.cls-1{fill:#d31023;fill-rule:evenodd}</style><style>.cls-1{fill:#d31023;fill-rule:evenodd}</style><style>.cls-1{fill:#d31023;fill-rule:evenodd}</style><style>.cls-1{fill:#e13838;fill-rule:evenodd}</style><style>.cls-1{fill:#9f38e1;fill-rule:evenodd}</style><style>.cls-1{fill:#e1a338;fill-rule:evenodd}</style><style>.cls-1{fill:#fff;fill-rule:evenodd}</style><style>.cls-1{fill:#fff;fill-rule:evenodd}</style></defs><symbol id="card-icon-date" viewBox="0 0 16 17"><path id="Forma_1" data-name="Forma 1" class="cls-1" d="M373.809 671.056H372.5v-.882a1.182 1.182 0 0 0-1.19-1.174h-.048a1.182 1.182 0 0 0-1.191 1.174v.882h-6.142v-.882a1.183 1.183 0 0 0-1.191-1.174h-.048a1.182 1.182 0 0 0-1.19 1.174v.882h-1.31a1.183 1.183 0 0 0-1.19 1.175v12.6a1.182 1.182 0 0 0 1.19 1.169h13.619a1.183 1.183 0 0 0 1.191-1.174v-12.6a1.183 1.183 0 0 0-1.191-1.17zM373 683.988h-12v-8.977h12v8.977zm-9.835-5.007h1.668a.153.153 0 0 0 .156-.149v-1.682a.153.153 0 0 0-.156-.149h-1.668a.153.153 0 0 0-.156.149v1.682a.153.153 0 0 0 .156.149zm2.99.034h1.693a.157.157 0 0 0 .158-.156v-1.7a.157.157 0 0 0-.158-.157h-1.693a.158.158 0 0 0-.159.157v1.7a.158.158 0 0 0 .159.156zm3.034-.026h1.626a.157.157 0 0 0 .15-.162v-1.663a.156.156 0 0 0-.15-.161h-1.626a.156.156 0 0 0-.15.161v1.663a.157.157 0 0 0 .15.162zm-6.068 3h1.688a.152.152 0 0 0 .149-.155v-1.677a.152.152 0 0 0-.149-.154h-1.688a.152.152 0 0 0-.15.154v1.677a.152.152 0 0 0 .15.16zm3.042-.015h1.674a.153.153 0 0 0 .154-.152v-1.652a.153.153 0 0 0-.154-.152h-1.674a.153.153 0 0 0-.154.152v1.652a.153.153 0 0 0 .154.157zm3-.046h1.681a.151.151 0 0 0 .151-.15v-1.627a.151.151 0 0 0-.151-.15h-1.681a.151.151 0 0 0-.151.15v1.627a.151.151 0 0 0 .15.155z" transform="translate(-359 -669)"/></symbol><symbol id="card-icon-home" viewBox="0 0 15 14"><path id="Forma_1" data-name="Forma 1" class="cls-1" d="M374 671.3l-2.813-3.111v-4.667h-1.875v2.593L366.5 663l-7.5 8.3v.519h1.875V677h4.687v-3.111h1.875V677h4.688v-5.185H374v-.515z" transform="translate(-359 -663)"/></symbol><symbol id="card-icon-image" viewBox="0 0 19 15"><path id="Forma_1" data-name="Forma 1" class="cls-1" d="M377.7 627h-18.4a.3.3 0 0 0-.3.3v14.4a.3.3 0 0 0 .3.3h18.4a.3.3 0 0 0 .3-.3v-14.4a.3.3 0 0 0-.3-.3zm-1.5 12.6l-4.14-4.292a.124.124 0 0 0-.17-.007l-2.872 2.53-3.67-4.523a.123.123 0 0 0-.1-.046.125.125 0 0 0-.1.05l-4.341 5.83v-10.334h15.388V639.6zm-4.547-6.438a1.479 1.479 0 1 0-1.477-1.478 1.478 1.478 0 0 0 1.471 1.476z" transform="translate(-359 -627)"/></symbol><symbol id="card-icon-map" viewBox="0 0 11 15"><path class="cls-1" d="M5.5 0A5.466 5.466 0 0 0 0 5.42c0 3.709 4.922 9.154 5.132 9.384a.5.5 0 0 0 .736 0C6.078 14.574 11 9.129 11 5.42A5.466 5.466 0 0 0 5.5 0zm0 8.147A2.727 2.727 0 1 1 8.267 5.42 2.75 2.75 0 0 1 5.5 8.147z"/></symbol><symbol id="card-icon-rub" viewBox="0 0 12 13"><path id="Forma_1" data-name="Forma 1" class="cls-1" d="M538.3 674.932h2.1v1.773a.286.286 0 0 0 .084.212.3.3 0 0 0 .216.083h1.566a.3.3 0 0 0 .211-.083.279.279 0 0 0 .089-.212v-1.773h4.734a.3.3 0 0 0 .216-.083.289.289 0 0 0 .084-.213v-1.182a.286.286 0 0 0-.084-.212.3.3 0 0 0-.216-.083h-4.734v-1.09h3.187a4.263 4.263 0 0 0 3.061-1.126 4.159 4.159 0 0 0 0-5.817 4.268 4.268 0 0 0-3.061-1.126H540.7a.3.3 0 0 0-.216.083.286.286 0 0 0-.084.212v5.805h-2.1a.294.294 0 0 0-.3.3v1.376a.285.285 0 0 0 .084.212.293.293 0 0 0 .216.083h2.1v1.09h-2.1a.3.3 0 0 0-.216.083.285.285 0 0 0-.084.212v1.182a.289.289 0 0 0 .084.213.3.3 0 0 0 .216.081zm4.266-8.965h3a2.247 2.247 0 0 1 1.6.572 2.142 2.142 0 0 1 0 2.992 2.251 2.251 0 0 1-1.6.572h-3v-4.136z" transform="translate(-538 -664)"/></symbol><symbol id="card-icon-time" viewBox="0 0 16 16"><path id="Forma_1" data-name="Forma 1" class="cls-1" d="M373.928 704.984a7.958 7.958 0 0 0-2.912-2.912 8.052 8.052 0 0 0-8.032 0 7.958 7.958 0 0 0-2.912 2.912 8.052 8.052 0 0 0 0 8.032 7.966 7.966 0 0 0 2.912 2.912 8.052 8.052 0 0 0 8.032 0 7.958 7.958 0 0 0 2.912-2.912 8.052 8.052 0 0 0 0-8.032zm-2.021 6.86a5.653 5.653 0 0 1-2.063 2.063 5.7 5.7 0 0 1-5.688 0 5.653 5.653 0 0 1-2.063-2.063 5.7 5.7 0 0 1 0-5.688 5.653 5.653 0 0 1 2.063-2.063 5.7 5.7 0 0 1 5.688 0 5.653 5.653 0 0 1 2.063 2.063 5.7 5.7 0 0 1 0 5.688zM368 705h-.667a.322.322 0 0 0-.333.334V709h-2.334a.322.322 0 0 0-.333.333v1.2a.322.322 0 0 0 .333.334h3.991a.322.322 0 0 0 .333-.334v-5.2a.329.329 0 0 0-.094-.24A4.152 4.152 0 0 0 368 705z" transform="translate(-359 -701)"/></symbol><symbol id="file-icon-doc" viewBox="0 0 22 26"><path fill="3c8ecf" data-name="Forma 1" class="cls-1" d="M20.61 9.3h-.6V6.287a.554.554 0 0 0 0-.056.518.518 0 0 0-.116-.331L15.104.174a.485.485 0 0 0-.1-.085.28.28 0 0 0-.032-.02.513.513 0 0 0-.1-.043.267.267 0 0 1-.026-.009.528.528 0 0 0-.112-.014H2.961a1 1 0 0 0-.974 1.02v8.28h-.6A1.425 1.425 0 0 0 0 10.757v7.579a1.426 1.426 0 0 0 1.392 1.457h.6v5.187A1 1 0 0 0 2.966 26h16.078a1 1 0 0 0 .974-1.02v-5.187h.6A1.426 1.426 0 0 0 22 18.336v-7.579A1.425 1.425 0 0 0 20.61 9.3zM2.961 1.02h11.287v5.216a.5.5 0 0 0 .487.51h4.3V9.3H2.961V1.02zm11.691 13.112c0 2.318-1.343 3.723-3.317 3.723-2 0-3.177-1.584-3.177-3.6 0-2.119 1.292-3.7 3.287-3.7 2.074.001 3.207 1.626 3.207 3.577zm-13.16 3.576v-6.942a13.086 13.086 0 0 1 2.065-.147 4.2 4.2 0 0 1 2.766.755 3.188 3.188 0 0 1 1.143 2.664 3.663 3.663 0 0 1-1.123 2.863 4.7 4.7 0 0 1-3.117.912 12.717 12.717 0 0 1-1.734-.105zm17.547 7H2.961v-4.911h16.078V24.7zm.073-8.181a3.66 3.66 0 0 0 1.273-.231l.231 1.248a4.166 4.166 0 0 1-1.734.3 3.285 3.285 0 0 1-3.538-3.534 3.52 3.52 0 0 1 3.688-3.754 3.825 3.825 0 0 1 1.664.315l-.311 1.268a3.174 3.174 0 0 0-1.283-.262 2.329 2.329 0 0 0 .01 4.646zm-13.27-2.433a1.984 1.984 0 0 0-2.125-2.244 3 3 0 0 0-.691.063v4.625a2.721 2.721 0 0 0 .531.031c1.383.007 2.285-.791 2.285-2.479zm3.929.136c0 1.385.622 2.36 1.644 2.36s1.623-1.028 1.623-2.4c0-1.269-.581-2.359-1.633-2.359-1.032-.006-1.634 1.022-1.634 2.395z"/></symbol><symbol id="file-icon-pdf" viewBox="0 0 23 26"><path id="Forma_1" data-name="Forma 1" class="cls-1" d="M375.076 684.322a1.136 1.136 0 0 0-1.343-1.118 2.917 2.917 0 0 0-.711.068v2.248a2.683 2.683 0 0 0 .575.045 1.268 1.268 0 0 0 1.479-1.243zm5.3-1.1a3.584 3.584 0 0 0-.779.067v4.982a3.154 3.154 0 0 0 .6.034 2.359 2.359 0 0 0 2.573-2.666 2.182 2.182 0 0 0-2.389-2.412zm10.166-2.927h-.624v-3.012a.368.368 0 0 0-.006-.057.5.5 0 0 0-.121-.33l-5.008-5.727a.507.507 0 0 0-.1-.085.233.233 0 0 0-.034-.02.5.5 0 0 0-.1-.043c-.01 0-.018-.006-.028-.009a.5.5 0 0 0-.116-.014H372.1a1.02 1.02 0 0 0-1.019 1.019v8.283h-.624a1.456 1.456 0 0 0-1.457 1.457v7.578a1.456 1.456 0 0 0 1.456 1.457h.624v5.188a1.021 1.021 0 0 0 1.02 1.02h16.8a1.021 1.021 0 0 0 1.019-1.02v-5.187h.624a1.457 1.457 0 0 0 1.457-1.458v-7.578a1.456 1.456 0 0 0-1.453-1.457zM372.1 672.02h11.8v5.216a.51.51 0 0 0 .51.51h4.5v2.554H372.1v-8.28zm12.5 13.567a3.859 3.859 0 0 1-1.265 3.084 5.453 5.453 0 0 1-3.508.982 15.014 15.014 0 0 1-1.953-.112v-7.478a15.3 15.3 0 0 1 2.325-.158 4.9 4.9 0 0 1 3.115.813 3.371 3.371 0 0 1 1.286 2.869zm-13.283 3.987v-7.511a14.106 14.106 0 0 1 2.325-.158 3.644 3.644 0 0 1 2.324.61 2.227 2.227 0 0 1 .812 1.762 2.437 2.437 0 0 1-.7 1.808 3.528 3.528 0 0 1-2.472.8 4.407 4.407 0 0 1-.586-.034v2.722h-1.7zM388.9 695.7h-16.8v-4.911h16.8v4.911zm1.476-12.331h-2.923v1.74h2.731v1.4h-2.731v3.06h-1.726v-7.613h4.649v1.412z" transform="translate(-369 -671)"/></symbol><symbol id="file-icon-rar" viewBox="0 0 24 26"><path id="Forma_1" data-name="Forma 1" class="cls-1" d="M380.8 1092.33c-.142-.45-.283-1.02-.4-1.47h-.023c-.118.45-.235 1.03-.365 1.47l-.471 1.61h1.755zm10.684-4.03h-.651v-3.01-.06a.483.483 0 0 0-.126-.33l-5.226-5.73a.462.462 0 0 0-.106-.08.058.058 0 0 0-.034-.02.458.458 0 0 0-.1-.05.035.035 0 0 1-.029-.01c-.039 0-.08-.01-.122-.01h-12.86a1.045 1.045 0 0 0-1.063 1.02v8.28h-.65a1.489 1.489 0 0 0-1.52 1.46v7.58a1.487 1.487 0 0 0 1.52 1.45h.65v5.19a1.045 1.045 0 0 0 1.063 1.02h17.54a1.045 1.045 0 0 0 1.062-1.02v-5.19h.651a1.487 1.487 0 0 0 1.52-1.45v-7.58a1.489 1.489 0 0 0-1.52-1.46zm-19.253-8.28h12.313v5.22a.522.522 0 0 0 .531.51h4.7v2.55H372.23v-8.28zm11.866 17.16h-1.932l-.612-1.95h-2.273l-.565 1.95h-1.86l2.425-7.61h2.355zm-11.977-2.99v2.99h-1.778v-7.51a16.448 16.448 0 0 1 2.391-.16 4.177 4.177 0 0 1 2.567.6 1.913 1.913 0 0 1 .73 1.6 2.029 2.029 0 0 1-1.4 1.87v.04a1.916 1.916 0 0 1 1.06 1.42 21.415 21.415 0 0 0 .647 2.14H374.5a8.912 8.912 0 0 1-.554-1.77 1.192 1.192 0 0 0-1.284-1.22h-.542zm17.651 9.51H372.23v-4.91h17.54v4.91zm-.456-6.52a8.984 8.984 0 0 1-.554-1.77 1.193 1.193 0 0 0-1.283-1.22h-.542v2.99h-1.778v-7.51a16.432 16.432 0 0 1 2.39-.16 4.175 4.175 0 0 1 2.567.6 1.914 1.914 0 0 1 .731 1.6 2.03 2.03 0 0 1-1.4 1.87v.04a1.913 1.913 0 0 1 1.06 1.42 21.351 21.351 0 0 0 .648 2.14h-1.837zm-15.063-5.33a1.1 1.1 0 0 0-1.319-1.06 3.908 3.908 0 0 0-.813.06v2.1h.707a1.194 1.194 0 0 0 1.424-1.1zm13.5-1.06a3.908 3.908 0 0 0-.813.06v2.1h.706a1.194 1.194 0 0 0 1.425-1.1 1.1 1.1 0 0 0-1.322-1.06z" transform="translate(-369 -1079)"/></symbol><symbol id="file-icon-zip" viewBox="0 0 23 26"><path id="Forma_1" data-name="Forma 1" class="cls-1" d="M390.547 980.3h-.624v-3.012a.368.368 0 0 0-.006-.057.5.5 0 0 0-.121-.33l-5.008-5.727a.512.512 0 0 0-.1-.086l-.034-.019a.5.5 0 0 0-.1-.043c-.01 0-.018-.006-.028-.009a.5.5 0 0 0-.116-.014H372.1a1.02 1.02 0 0 0-1.019 1.02v8.28h-.624a1.456 1.456 0 0 0-1.457 1.454v7.578a1.456 1.456 0 0 0 1.456 1.457h.624v5.188a1.02 1.02 0 0 0 1.02 1.02h16.8a1.02 1.02 0 0 0 1.019-1.02v-5.187h.624a1.457 1.457 0 0 0 1.457-1.457v-7.579a1.456 1.456 0 0 0-1.453-1.457zm-18.447-8.28h11.8v5.216a.51.51 0 0 0 .51.51h4.5v2.554H372.1v-8.28zm10.733 9.585v7.613H381.1v-7.613h1.726zm-8.386 1.423v-1.423h5.519v.995l-3.544 5.151v.044h3.6v1.424h-5.913v-.927l3.623-5.218v-.045h-3.285zM388.9 995.7h-16.8v-4.911h16.8v4.911zm.177-9.976a3.524 3.524 0 0 1-2.471.8 4.259 4.259 0 0 1-.587-.034v2.722h-1.7V981.7a14.106 14.106 0 0 1 2.325-.158 3.647 3.647 0 0 1 2.325.61 2.227 2.227 0 0 1 .812 1.762 2.434 2.434 0 0 1-.7 1.814zm-2.347-2.881a2.917 2.917 0 0 0-.711.068v2.248a2.618 2.618 0 0 0 .576.045 1.267 1.267 0 0 0 1.478-1.242 1.135 1.135 0 0 0-1.339-1.115z" transform="translate(-369 -971)"/></symbol><symbol id="icon-mail" viewBox="0 0 18 13"><path id="Forma_1" data-name="Forma 1" class="cls-1" d="M347.773 934.129l-6.367 5.518a1.3 1.3 0 0 0 .888.353h15.411a1.288 1.288 0 0 0 .885-.353l-6.363-5.518L350 936.1zm9.932-7.129h-15.411a1.284 1.284 0 0 0-.885.354L350 934.8l8.593-7.447a1.287 1.287 0 0 0-.888-.353zM341 938.94l6.214-5.338L341 928.14v10.8zm18 0v-10.8l-6.214 5.465z" transform="translate(-341 -927)"/></symbol><symbol id="icon-phone" viewBox="0 0 18 18"><path id="Forma_1" data-name="Forma 1" class="cls-1" d="M137.594 939.243l-2.779-2.788a1.446 1.446 0 0 0-2.043.039l-1.4 1.4-.277-.154a13.152 13.152 0 0 1-5.808-5.826c-.052-.094-.1-.184-.15-.271l.939-.941.462-.463a1.454 1.454 0 0 0 .037-2.049l-2.779-2.787a1.443 1.443 0 0 0-2.042.039l-.784.789.022.022a4.518 4.518 0 0 0-.645 1.141 4.729 4.729 0 0 0-.288 1.158c-.367 3.05 1.023 5.839 4.8 9.622 5.215 5.229 9.418 4.833 9.6 4.814a4.663 4.663 0 0 0 1.158-.291 4.513 4.513 0 0 0 1.134-.645l.017.016.794-.779a1.458 1.458 0 0 0 .032-2.046z" transform="translate(-120 -925)"/></symbol><symbol id="temp-icon-left-arrow" viewBox="0 0 31.494 31.494"><path d="M10.273 5.01a1.117 1.117 0 0 1 1.587 1.57l-8.047 8.047h26.554c.62 0 1.127.492 1.127 1.11 0 .62-.508 1.128-1.127 1.128H3.813l8.047 8.032c.43.444.43 1.16 0 1.587a1.112 1.112 0 0 1-1.587 0L.32 16.532a1.12 1.12 0 0 1 0-1.57l9.953-9.953z"/></symbol><symbol id="temp-icon-right-arrow" viewBox="0 0 31.49 31.49"><path d="M21.205 5.007a1.117 1.117 0 0 0-1.587 1.57l8.047 8.048H1.11c-.618 0-1.11.493-1.11 1.112 0 .62.492 1.127 1.11 1.127h26.555l-8.047 8.032c-.43.444-.43 1.16 0 1.587.444.444 1.16.444 1.587 0l9.952-9.952a1.092 1.092 0 0 0 0-1.57l-9.952-9.95z" fill="#1E201D"/></symbol></svg>